<svg width="36" height="30" viewBox="0 0 36 30" fill="none" xmlns="http://www.w3.org/2000/svg">
<path d="M11.25 23.9999C10.836 23.9999 10.5 23.6639 10.5 23.2499V3.01794C10.5 1.37694 11.835 0.0314443 13.476 0.0179443H13.5015C14.298 0.0179443 15.0465 0.325444 15.612 0.887944C16.185 1.45494 16.5 2.21244 16.5 3.01794V11.6969C16.779 11.4644 17.1015 11.2799 17.4615 11.1599C18.3945 10.8479 19.419 11.0264 20.193 11.6339C20.967 12.2414 21.3825 13.1909 21.3015 14.1704L20.997 17.9249C20.9655 18.3374 20.601 18.6404 20.19 18.6119C19.7775 18.5789 19.47 18.2159 19.503 17.8049L19.8075 14.0504C19.8465 13.5644 19.65 13.1144 19.2675 12.8144C18.8835 12.5144 18.3975 12.4259 17.934 12.5834C17.391 12.7649 17.01 13.2524 16.965 13.8254L16.497 17.9504C16.452 18.3449 16.1505 18.6539 15.7095 18.6134C15.3105 18.5924 15 18.2624 15 17.8649V3.01794C15 2.61444 14.8425 2.23644 14.556 1.95294C14.271 1.66794 13.9035 1.48044 13.488 1.51794C12.6675 1.52544 12 2.19744 12 3.01794V23.2499C12 23.6639 11.664 23.9999 11.25 23.9999Z" fill="white"/>
<path d="M12 35.8649C11.778 35.8649 11.556 35.7659 11.4075 35.5754C11.187 35.2919 6 28.5599 6 23.1149C6 18.1874 10.407 16.1414 10.5945 16.0559C10.977 15.8879 11.415 16.0559 11.5845 16.4294C11.7555 16.8059 11.589 17.2499 11.214 17.4224C11.0625 17.4929 7.5 19.1699 7.5 23.1149C7.5 28.0499 12.54 34.5884 12.5925 34.6544C12.8475 34.9814 12.789 35.4524 12.4605 35.7059C12.324 35.8139 12.1605 35.8649 12 35.8649Z" fill="white"/>
<path d="M24.75 20.115C24.336 20.115 24 19.779 24 19.365V16.365C24 15.537 23.328 14.865 22.5 14.865C21.906 14.865 21.3705 15.213 21.1305 15.7545C20.964 16.134 20.5155 16.302 20.142 16.137C19.7625 15.9705 19.5915 15.5265 19.7595 15.1485C20.238 14.0655 21.315 13.365 22.5 13.365C24.1545 13.365 25.5 14.7105 25.5 16.365V19.365C25.5 19.7805 25.164 20.115 24.75 20.115Z" fill="white"/>
<path d="M24.0015 35.865C23.8095 35.865 23.6175 35.7915 23.4705 35.646C23.178 35.355 23.1765 34.8795 23.4675 34.587C23.52 34.5345 28.5 29.4045 28.5 19.803V19.365C28.5 18.537 27.828 17.865 27 17.865C26.172 17.865 25.5 18.537 25.5 19.365C25.5 19.779 25.164 20.115 24.75 20.115C24.336 20.115 24 19.779 24 19.365C24 17.7105 25.3455 16.365 27 16.365C28.6545 16.365 30 17.7105 30 19.365V19.803C30 30.0585 24.753 35.4225 24.531 35.646C24.384 35.7915 24.192 35.865 24.0015 35.865Z" fill="white"/>
</svg>
