<svg width="20" height="20" viewBox="0 0 20 20" fill="none" xmlns="http://www.w3.org/2000/svg">
<path d="M19 11.5C18.7348 11.5 18.4804 11.6054 18.2929 11.7929C18.1054 11.9804 18 12.2348 18 12.5V16.5C18 16.7652 17.8946 17.0196 17.7071 17.2071C17.5196 17.3946 17.2652 17.5 17 17.5H3C2.73478 17.5 2.48043 17.3946 2.29289 17.2071C2.10536 17.0196 2 16.7652 2 16.5V6.91L7.88 12.79C8.4425 13.3518 9.205 13.6674 10 13.6674C10.795 13.6674 11.5575 13.3518 12.12 12.79L15.71 9.21C15.8983 9.0217 16.0041 8.7663 16.0041 8.5C16.0041 8.2337 15.8983 7.9783 15.71 7.79C15.5217 7.6017 15.2663 7.49591 15 7.49591C14.7337 7.49591 14.4783 7.6017 14.29 7.79L10.71 11.38C10.617 11.4737 10.5064 11.5481 10.3846 11.5989C10.2627 11.6497 10.132 11.6758 10 11.6758C9.86799 11.6758 9.73728 11.6497 9.61542 11.5989C9.49356 11.5481 9.38296 11.4737 9.29 11.38L3.41 5.5H15C15.2652 5.5 15.5196 5.39464 15.7071 5.20711C15.8946 5.01957 16 4.76522 16 4.5C16 4.23478 15.8946 3.98043 15.7071 3.79289C15.5196 3.60536 15.2652 3.5 15 3.5H3C2.20435 3.5 1.44129 3.81607 0.87868 4.37868C0.316071 4.94129 0 5.70435 0 6.5V16.5C0 17.2956 0.316071 18.0587 0.87868 18.6213C1.44129 19.1839 2.20435 19.5 3 19.5H17C17.7956 19.5 18.5587 19.1839 19.1213 18.6213C19.6839 18.0587 20 17.2956 20 16.5V12.5C20 12.2348 19.8946 11.9804 19.7071 11.7929C19.5196 11.6054 19.2652 11.5 19 11.5ZM19 0.5C18.7348 0.5 18.4804 0.605357 18.2929 0.792893C18.1054 0.98043 18 1.23478 18 1.5V5.5C18 5.76522 18.1054 6.01957 18.2929 6.20711C18.4804 6.39464 18.7348 6.5 19 6.5C19.2652 6.5 19.5196 6.39464 19.7071 6.20711C19.8946 6.01957 20 5.76522 20 5.5V1.5C20 1.23478 19.8946 0.98043 19.7071 0.792893C19.5196 0.605357 19.2652 0.5 19 0.5ZM18.8 7.5C18.7374 7.51095 18.6767 7.53117 18.62 7.56C18.5563 7.58189 18.4957 7.61215 18.44 7.65L18.29 7.77C18.1073 7.96163 18.0037 8.21523 18 8.48C17.9951 8.54324 17.9951 8.60676 18 8.67C18.0093 8.73623 18.0296 8.80045 18.06 8.86C18.0819 8.92372 18.1122 8.98425 18.15 9.04C18.1869 9.09239 18.227 9.14248 18.27 9.19C18.363 9.28373 18.4736 9.35812 18.5954 9.40889C18.7173 9.45966 18.848 9.4858 18.98 9.4858C19.112 9.4858 19.2427 9.45966 19.3646 9.40889C19.4864 9.35812 19.597 9.28373 19.69 9.19L19.81 9.04C19.8478 8.98425 19.8781 8.92372 19.9 8.86C19.9304 8.80045 19.9507 8.73623 19.96 8.67C19.9649 8.60676 19.9649 8.54324 19.96 8.48C19.963 8.33002 19.9323 8.18128 19.87 8.04479C19.8078 7.9083 19.7156 7.78757 19.6004 7.69153C19.4851 7.5955 19.3498 7.52662 19.2043 7.49C19.0588 7.45339 18.907 7.44997 18.76 7.48L18.8 7.5Z" fill="#F2F2F2"/>
</svg>
